<svg width="46" height="12" viewBox="0 0 46 12" fill="none" xmlns="http://www.w3.org/2000/svg">
<path fill-rule="evenodd" clip-rule="evenodd" d="M5.191 0L0 11.826H6.215L6.985 9.941H8.746L9.517 11.827H16.357V10.387L16.967 11.827H20.507L21.116 10.357V11.827H35.343L37.073 9.99L38.693 11.827L46 11.842L40.792 5.946L46 0H38.806L37.122 1.803L35.553 0H20.076L18.746 3.053L17.387 0H11.186V1.39L10.496 0H5.193H5.191ZM6.394 1.68H9.424L12.867 9.699V1.679H16.186L18.846 7.429L21.296 1.679H24.6V10.166H22.59L22.574 3.516L19.644 10.166H17.847L14.902 3.516V10.166H10.768L9.985 8.263H5.75L4.968 10.164H2.754L6.394 1.679V1.68ZM34.607 1.68H26.437V10.16H34.48L37.073 7.35L39.572 10.16H42.184L38.387 5.945L42.184 1.679H39.685L37.105 4.458L34.607 1.679V1.68ZM7.867 3.115L6.473 6.505H9.261L7.868 3.115H7.867ZM28.454 4.985V3.435H33.552L35.776 5.912L33.453 8.404H28.454V6.712H32.911V4.986H28.454V4.985Z" fill="#016FD0"/>
</svg>
