<svg width="42" height="18" viewBox="0 0 42 14" fill="none" xmlns="http://www.w3.org/2000/svg">
<path d="M27.482 7.91772e-05C28.5269 -0.00452076 29.5629 0.191351 30.534 0.577079L30.071 3.50308L29.763 3.36008C28.9701 2.9927 28.1026 2.81468 27.229 2.84008C25.886 2.84008 25.283 3.43108 25.269 4.00808C25.269 4.64308 25.999 5.06108 27.189 5.68108C29.149 6.64708 30.057 7.82908 30.044 9.37108C30.016 12.1841 27.692 14.0001 24.122 14.0001C22.596 13.9851 21.126 13.6531 20.328 13.2791L20.804 10.2361L21.252 10.4531C22.358 10.9581 23.086 11.1731 24.444 11.1731C25.424 11.1731 26.474 10.7551 26.487 9.84808C26.487 9.25608 26.04 8.82408 24.724 8.16008C23.436 7.51108 21.714 6.43008 21.742 4.48408C21.756 1.84508 24.122 7.91772e-05 27.482 7.91772e-05ZM14.798 13.7981H18.2L20.328 0.246079H16.926L14.798 13.7981Z" fill="#00579F"/>
<path fill-rule="evenodd" clip-rule="evenodd" d="M39.255 0.246079H36.624C35.812 0.246079 35.196 0.491079 34.845 1.37008L29.792 13.7981H33.362L34.076 11.7651H38.444C38.542 12.2411 38.85 13.7981 38.85 13.7981H42L39.255 0.246079ZM35.055 8.99608L36.415 5.20608C36.408 5.21608 36.453 5.09008 36.519 4.90108C36.617 4.62108 36.762 4.20808 36.862 3.90808L37.099 5.07508C37.099 5.07508 37.744 8.31908 37.884 8.99708H35.056L35.055 8.99608Z" fill="#00579F"/>
<path d="M8.624 9.48708L11.956 0.246079H15.554L10.206 13.7841H6.608L3.556 1.93208C5.712 3.10008 7.644 5.45008 8.26 7.61208L8.624 9.48708Z" fill="#00579F"/>
<path d="M5.53 0.246079H0.0560002L0 0.519079C4.27 1.64408 7.098 4.35508 8.26 7.61308L7.07 1.38508C6.874 0.519079 6.272 0.275079 5.53 0.245079V0.246079Z" fill="#FAA61A"/>
</svg>
